<?xml version="1.0" encoding="UTF-8" standalone="no"?>
<svg
   version="1.1"
   id="svg2"
   width="136.53333"
   height="136.53333"
   viewBox="0 0 136.53333 136.53333"
   sodipodi:docname="launcher_bfb.svg"
   inkscape:export-filename="/home/muqtadir/Desktop/unity-orb1.png"
   inkscape:export-xdpi="90"
   inkscape:export-ydpi="90"
   inkscape:version="1.1.2 (0a00cf5339, 2022-02-04)"
   xmlns:inkscape="http://www.inkscape.org/namespaces/inkscape"
   xmlns:sodipodi="http://sodipodi.sourceforge.net/DTD/sodipodi-0.dtd"
   xmlns:xlink="http://www.w3.org/1999/xlink"
   xmlns="http://www.w3.org/2000/svg"
   xmlns:svg="http://www.w3.org/2000/svg"
   xmlns:rdf="http://www.w3.org/1999/02/22-rdf-syntax-ns#"
   xmlns:cc="http://creativecommons.org/ns#"
   xmlns:dc="http://purl.org/dc/elements/1.1/">
  <metadata
     id="metadata8">
    <rdf:RDF>
      <cc:Work
         rdf:about="">
        <dc:format>image/svg+xml</dc:format>
        <dc:type
           rdf:resource="http://purl.org/dc/dcmitype/StillImage" />
        <dc:title />
      </cc:Work>
    </rdf:RDF>
  </metadata>
  <defs
     id="defs6">
    <linearGradient
       inkscape:collect="always"
       xlink:href="#linearGradient927"
       id="linearGradient1686-0"
       x1="321.99991"
       y1="84.000153"
       x2="365.99991"
       y2="84.000153"
       gradientUnits="userSpaceOnUse"
       gradientTransform="matrix(0,2.9046321,-2.9677501,0,317.55806,-932.37102)" />
    <linearGradient
       inkscape:collect="always"
       id="linearGradient927">
      <stop
         style="stop-color:#f3e6fa;stop-opacity:1"
         offset="0"
         id="stop923" />
      <stop
         id="stop933"
         offset="0.125"
         style="stop-color:#f3e6fa;stop-opacity:0.09803922" />
      <stop
         id="stop931"
         offset="0.92500001"
         style="stop-color:#f3e6fa;stop-opacity:0.09803922" />
      <stop
         style="stop-color:#f3e6fa;stop-opacity:0.49803922"
         offset="1"
         id="stop925" />
    </linearGradient>
  </defs>
  <sodipodi:namedview
     pagecolor="#3d3d3d"
     bordercolor="#666666"
     borderopacity="1"
     objecttolerance="10"
     gridtolerance="10"
     guidetolerance="10"
     inkscape:pageopacity="0"
     inkscape:pageshadow="2"
     inkscape:window-width="1920"
     inkscape:window-height="965"
     id="namedview4"
     showgrid="false"
     units="px"
     inkscape:zoom="2.5"
     inkscape:cx="80.2"
     inkscape:cy="76.6"
     inkscape:window-x="0"
     inkscape:window-y="36"
     inkscape:window-maximized="1"
     inkscape:current-layer="svg2"
     inkscape:document-rotation="0"
     inkscape:pagecheckerboard="0" />
  <path
     style="color:#000000;font-style:normal;font-variant:normal;font-weight:normal;font-stretch:normal;font-size:medium;line-height:normal;font-family:sans-serif;font-variant-ligatures:normal;font-variant-position:normal;font-variant-caps:normal;font-variant-numeric:normal;font-variant-alternates:normal;font-feature-settings:normal;text-indent:0;text-align:start;text-decoration:none;text-decoration-line:none;text-decoration-style:solid;text-decoration-color:#000000;letter-spacing:normal;word-spacing:normal;text-transform:none;writing-mode:lr-tb;direction:ltr;text-orientation:mixed;dominant-baseline:auto;baseline-shift:baseline;text-anchor:start;white-space:normal;shape-padding:0;clip-rule:nonzero;display:inline;overflow:visible;visibility:visible;opacity:0.1;isolation:auto;mix-blend-mode:normal;color-interpolation:sRGB;color-interpolation-filters:linearRGB;solid-color:#000000;solid-opacity:1;vector-effect:none;fill:#000000;fill-opacity:1;fill-rule:nonzero;stroke:none;stroke-width:5.87204361;stroke-linecap:butt;stroke-linejoin:miter;stroke-miterlimit:4;stroke-dasharray:none;stroke-dashoffset:0;stroke-opacity:1;marker:none;color-rendering:auto;image-rendering:auto;shape-rendering:auto;text-rendering:auto;enable-background:accumulate"
     d="m 37.573433,2.9202406 c -7.781739,0 -13.909103,0.1455247 -18.950896,0.8328467 C 13.580716,4.4404388 9.4550382,5.7297171 6.4329484,8.1783524 3.4108883,10.626984 1.8158115,13.976199 0.97739229,18.072688 0.13894348,22.169208 -0.02472795,27.156491 0.01340764,33.491722 v 36.234721 36.252077 c -0.03769042,6.32548 0.12642616,11.31024 0.96398465,15.40234 0.83841921,4.09652 2.43349601,7.44572 5.45555611,9.89435 3.0220898,2.44864 7.1477676,3.73791 12.1895886,4.42524 5.041852,0.68739 11.169157,0.83288 18.950896,0.83288 h 61.391416 c 7.781821,0 13.905931,-0.14514 18.937331,-0.83288 5.03135,-0.68762 9.14441,-1.98125 12.15534,-4.4308 3.01099,-2.44948 4.5966,-5.79631 5.44188,-9.88879 0.8453,-4.09242 1.02547,-9.06961 1.02547,-15.40234 V 69.726443 33.475042 c 0,-6.332726 -0.18044,-11.309873 -1.02547,-15.402354 -0.84528,-4.092451 -2.43092,-7.439254 -5.44191,-9.8887903 C 127.04657,5.7343641 122.9335,4.4407284 117.90212,3.7530873 112.87078,3.0654433 106.74662,2.9202406 98.964849,2.9202406 Z"
     id="path1020"
     inkscape:connector-curvature="0"
     sodipodi:nodetypes="sccsccccccsscccscsccsss" />
  <path
     style="color:#000000;display:inline;overflow:visible;visibility:visible;fill:#ffffff;fill-opacity:1;fill-rule:nonzero;stroke:none;stroke-width:2.93602157;marker:none;enable-background:accumulate;opacity:0.05"
     d="m 36.616066,1.46807 c -29.710622,0 -35.2766675,2.6326143 -35.1205639,28.315452 v 37.038633 37.039335 c -0.1564004,25.68283 5.4099419,28.31544 35.1205639,28.31544 h 63.304487 c 29.703207,0 35.120497,-2.63232 35.120497,-28.31544 V 66.822155 29.783522 c 0,-25.6831304 -5.41729,-28.315452 -35.120527,-28.315452 z"
     id="path964"
     inkscape:connector-curvature="0"
     sodipodi:nodetypes="scccssscsss" />
  <path
     style="display:inline;opacity:0.2;fill:#ffffff;fill-opacity:1;stroke:none;stroke-width:5.87204313;stroke-linecap:round;stroke-linejoin:round;stroke-miterlimit:4;stroke-dasharray:none;stroke-dashoffset:0;stroke-opacity:1;enable-background:new"
     d="M 122.82763,7.1410191 4.1773923,118.58086 v 0 c 0,0 2.7330968,13.59552 32.4363287,13.59552 h 63.30235 c 29.710619,0 35.276429,-2.63162 35.120329,-28.31451 V 66.822155 29.78238 C 133.55543,5.2605566 129.804,6.4966209 122.82763,7.1410191 Z"
     id="path962"
     inkscape:connector-curvature="0"
     sodipodi:nodetypes="ccssscccc" />
  <path
     style="color:#000000;display:inline;overflow:visible;visibility:visible;opacity:0.4;fill:none;fill-opacity:1;fill-rule:nonzero;stroke:#000000;stroke-width:2.93602157;stroke-miterlimit:4;stroke-dasharray:none;stroke-opacity:1;marker:none;enable-background:accumulate"
     d="m 36.616066,1.4680407 c -29.710622,0 -35.2766675,2.6326143 -35.1205639,28.3154523 v 37.038662 37.039335 c -0.1564004,25.68283 5.4099419,28.31544 35.1205639,28.31544 h 63.304487 c 29.703207,0 35.120497,-2.63232 35.120497,-28.31544 V 66.822155 29.783493 c 0,-25.6831306 -5.41729,-28.3154523 -35.120527,-28.3154523 z"
     id="path958"
     inkscape:connector-curvature="0"
     sodipodi:nodetypes="scccssscsss" />
  <path
     style="color:#000000;display:inline;overflow:visible;visibility:visible;opacity:0.6;fill:url(#linearGradient1686-0);fill-opacity:1;fill-rule:nonzero;stroke:none;stroke-width:2.93602157;marker:none;enable-background:accumulate"
     d="m 36.618351,2.9202406 c -14.810527,0 -23.357707,0.8024923 -27.8516528,4.2207785 C 6.5197254,8.8501622 5.0937808,11.21773 4.1817615,14.867805 3.2697718,18.517883 2.9433191,23.40751 2.9819001,29.776733 v 37.045422 37.045395 c -0.038878,6.36922 0.2878717,11.25888 1.1998614,14.90894 0.9120193,3.65006 2.3379639,6.0176 4.5849367,7.72679 4.4939748,3.41826 13.0411258,4.2208 27.8516528,4.2208 h 63.302351 c 14.806778,0 23.311728,-0.80368 27.787868,-4.2208 2.23804,-1.70861 3.65904,-4.07987 4.57915,-7.73244 0.9201,-3.65257 1.2694,-8.53814 1.2694,-14.90897 V 66.822155 29.78238 c 0,-6.370773 -0.3493,-11.256335 -1.2694,-14.90891 -0.92011,-3.652576 -2.34108,-6.0238287 -4.57915,-7.7324509 C 123.23243,3.7238069 114.72752,2.9202406 99.920702,2.9202406 Z m 7.129545,3.1882707 c 20.618059,0.00241 41.283276,0.00878 61.876434,0.1588686 6.35977,0.2408047 13.24896,-0.4290153 19.06432,2.70607 3.84648,2.0193891 4.59592,6.5363811 5.25152,10.3534451 0.52087,6.398586 0.27156,12.903067 0.41154,19.37366 0.0674,24.629916 0.22852,49.288685 -0.23771,73.914945 -0.47932,4.30826 -1.13175,9.6021 -5.33845,12.03266 -4.76473,2.4071 -10.31445,2.63285 -15.5749,2.76847 -28.192857,0.19695 -56.459373,0.24494 -84.650447,-0.0512 -4.683585,-0.3315 -9.706116,-0.69753 -13.749023,-3.25637 C 7.1522717,121.21787 6.7626061,116.18701 6.3379507,111.92893 5.9604529,85.791447 6.0898469,59.632601 6.1815503,33.481246 6.477435,26.564529 5.4533237,19.248544 8.2740517,12.68364 10.267341,8.2984563 15.591723,7.2811389 19.965355,6.709856 27.864557,5.790309 35.818602,6.282816 43.747926,6.1085113 Z"
     id="path964-3"
     inkscape:connector-curvature="0" />
  <path
     id="path12"
     style="fill:#4d4d4d;fill-opacity:1;stroke:none;stroke-width:0.0633053;stroke-linejoin:round;paint-order:stroke markers fill"
     d="M 68.386946,28.008705 A 46.000001,45.999994 0 0 0 22.412573,74.008748 46.000001,45.999994 0 0 0 68.412617,120.0087 46.000001,45.999994 0 0 0 114.41258,74.008748 46.000001,45.999994 0 0 0 68.412617,28.008705 a 46.000001,45.999994 0 0 0 -0.02568,0 z m 0.504997,14.719959 a 31.280001,31.279996 0 0 1 6.034734,0.587714 l -4.471922,7.745593 a 22.999998,22.999995 0 0 0 -1.562812,-0.05322 22.999998,22.999995 0 0 0 -1.562626,0.05296 l -3.9e-4,-6.39e-4 a 22.999996,22.999993 0 0 0 -9.93729,3.028352 22.999996,22.999993 0 0 0 -0.0019,0.0013 22.999996,22.999993 0 0 0 -7.589182,7.090553 l 5.69e-4,6.39e-4 a 22.999998,22.999995 0 0 0 -1.562812,2.70687 l -8.94385,1.02e-4 a 31.280001,31.279996 0 0 1 6.034544,-10.452199 l -6.39e-4,-6.39e-4 a 31.279999,31.279994 0 0 1 6.267219,-5.490949 l 2.200263,3.811087 3.372937,-1.947333 -2.200263,-3.810991 a 31.279999,31.279994 0 0 1 7.888316,-2.681863 l 4.92e-4,6.39e-4 a 31.280001,31.279996 0 0 1 6.034542,-0.587624 z m 9.893081,1.70667 6.576339,1.02e-4 c 0.443759,9.6e-5 0.85098,0.234549 1.079019,0.610535 l 3.290878,5.485244 c 0.09631,0.146414 0.202439,0.389025 0.187131,0.691929 -0.0092,0.181745 -0.06185,0.385818 -0.187131,0.602836 l -3.290878,5.491901 c -0.228147,0.375839 -0.635132,0.609781 -1.07893,0.609774 l -6.576428,-9.5e-5 c -0.221931,1.47e-4 -0.435013,-0.05648 -0.620713,-0.161262 v 0 c -0.185648,-0.104836 -0.343634,-0.258105 -0.458116,-0.448896 l -3.291262,-5.491805 c -0.240375,-0.400615 -0.240407,-0.893301 0,-1.29391 l 3.291351,-5.486195 c 0.114023,-0.187967 0.271913,-0.341486 0.458315,-0.445848 0.185738,-0.105545 0.398526,-0.164265 0.620425,-0.16431 z m -12.782417,4.328254 c 0.05232,0.09538 0.10718,0.190606 0.164967,0.28573 z m 26.452543,4.672647 v 1.98e-4 a 31.280001,31.279996 0 0 1 6.034644,10.452272 h -0.0051 a 31.279997,31.279992 0 0 1 1.621486,8.172806 h -4.460725 v 3.894666 h 4.461185 a 31.279997,31.279992 0 0 1 -1.621669,8.172716 h 0.0045 a 31.280001,31.279996 0 0 1 -6.034666,10.452354 l -4.471928,-7.745485 a 22.999998,22.999995 0 0 0 1.562812,-2.706582 h -0.0045 a 22.999995,22.999991 0 0 0 2.346115,-10.119953 22.999995,22.999991 0 0 0 -6.38e-4,-0.0026 22.999995,22.999991 0 0 0 -2.345917,-10.118247 l 0.0051,1.02e-4 a 22.999998,22.999995 0 0 0 -1.562167,-2.706684 z m -53.193199,13.616503 6.401571,0.104017 c 0.439568,0.0096 0.845627,0.245225 1.067519,0.629555 l 3.288118,5.69538 c 0.11109,0.192133 0.16868,0.404928 0.170775,0.618144 l -1e-4,-9.6e-5 c 0.0019,0.213185 -0.05175,0.42665 -0.159741,0.621192 l -3.110315,5.596397 c -0.226761,0.408474 -0.653437,0.654848 -1.120573,0.646958 l -6.396818,-0.107352 c -0.219797,-0.0045 -0.43171,-0.06476 -0.615294,-0.174008 -0.184275,-0.108081 -0.341525,-0.262928 -0.452506,-0.455074 L 35.046462,74.53247 c -0.221803,-0.384342 -0.222333,-0.854226 -0.01073,-1.239712 l 3.104891,-5.59259 c 0.07864,-0.15661 0.235782,-0.36984 0.505757,-0.508038 0.161997,-0.0829 0.364985,-0.139399 0.615576,-0.139392 z m 0.03265,17.075772 h 8.94385 a 22.999998,22.999995 0 0 0 1.562716,2.706677 l -0.0065,0.01112 a 22.999998,22.999995 0 0 0 17.528377,10.119981 l -4.465457,7.734642 4.471922,-7.745439 a 22.999998,22.999995 0 0 0 1.56262,0.05303 22.999998,22.999995 0 0 0 1.563004,-0.05367 l 4.471736,7.745699 a 31.280001,31.279996 0 0 1 -6.034644,0.58771 31.280001,31.279996 0 0 1 -6.034733,-0.58771 l -0.0064,0.0109 a 31.279999,31.279994 0 0 1 -7.888357,-2.68187 l 2.200352,-3.811096 -3.372937,-1.947399 -2.200353,3.811165 a 31.279999,31.279994 0 0 1 -6.267033,-5.490739 l 0.0065,-0.01086 a 31.280001,31.279996 0 0 1 -6.034638,-10.45228 z m 46.05177,5.863389 c 0.463386,-0.0078 0.886733,0.236599 1.111641,0.641821 l 3.080454,5.548583 c 0.104918,0.191155 0.15854,0.402883 0.155748,0.614804 -0.0013,0.21192 -0.05654,0.423903 -0.16659,0.614547 l -3.261873,5.649506 c -0.22018,0.38122 -0.623523,0.61467 -1.059629,0.62406 l -6.344429,0.10651 c -0.173541,0.0102 -0.434642,-0.0192 -0.687271,-0.18247 -0.151558,-0.0981 -0.300738,-0.24438 -0.425023,-0.45962 l -3.085788,-5.551047 c -0.209715,-0.382439 -0.208706,-0.848127 0.01144,-1.229351 l 3.26188,-5.649566 c 0.109953,-0.190734 0.264194,-0.345709 0.446328,-0.453266 v 0 c 0.182135,-0.107487 0.39224,-0.167248 0.612918,-0.17096 z" />
  <path
     id="path12-3"
     style="fill:#ffffff;fill-opacity:1;stroke:none;stroke-width:0.0633053;stroke-linejoin:round;paint-order:stroke markers fill"
     d="M 68.38737,22.009002 A 46.000001,45.999994 0 0 0 22.413,68.009045 46.000001,45.999994 0 0 0 68.41304,114.009 46.000001,45.999994 0 0 0 114.413,68.009045 46.000001,45.999994 0 0 0 68.41304,22.009002 a 46.000001,45.999994 0 0 0 -0.0257,0 z m 0.505,14.719959 a 31.280001,31.279996 0 0 1 6.03473,0.587714 l -4.47192,7.745593 a 22.999998,22.999995 0 0 0 -1.56281,-0.05322 22.999998,22.999995 0 0 0 -1.56263,0.05296 l -3.9e-4,-6.39e-4 a 22.999996,22.999993 0 0 0 -9.93729,3.028352 22.999996,22.999993 0 0 0 -0.002,0.0013 22.999996,22.999993 0 0 0 -7.58918,7.090553 l 5.7e-4,6.39e-4 a 22.999998,22.999995 0 0 0 -1.56281,2.70687 l -8.94385,1.02e-4 a 31.280001,31.279996 0 0 1 6.03454,-10.452199 l -6.4e-4,-6.39e-4 a 31.279999,31.279994 0 0 1 6.26722,-5.490949 l 2.20026,3.811087 3.37294,-1.947333 -2.20026,-3.810991 a 31.279999,31.279994 0 0 1 7.88831,-2.681863 l 5e-4,6.39e-4 a 31.280001,31.279996 0 0 1 6.03454,-0.587624 z m 9.89308,1.70667 6.57634,1.02e-4 c 0.44376,9.6e-5 0.85098,0.234549 1.07902,0.610535 l 3.29087,5.485244 c 0.0963,0.146414 0.20244,0.389025 0.18714,0.691929 -0.009,0.181745 -0.0618,0.385818 -0.18714,0.602836 l -3.29087,5.491901 c -0.22815,0.375839 -0.63513,0.609781 -1.07893,0.609774 l -6.57643,-9.5e-5 c -0.22193,1.47e-4 -0.43501,-0.05648 -0.62071,-0.161262 v 0 C 77.97909,51.661759 77.8211,51.50849 77.70662,51.317699 l -3.29126,-5.491805 c -0.24038,-0.400615 -0.24041,-0.893301 0,-1.29391 l 3.29135,-5.486195 c 0.11402,-0.187967 0.27191,-0.341486 0.45831,-0.445848 0.18574,-0.105545 0.39853,-0.164265 0.62043,-0.16431 z m -12.78242,4.328254 c 0.0523,0.09538 0.10718,0.190606 0.16497,0.28573 z m 26.45255,4.672647 v 1.98e-4 a 31.280001,31.279996 0 0 1 6.03464,10.452272 h -0.005 a 31.279997,31.279992 0 0 1 1.62148,8.172806 h -4.46072 v 3.894666 h 4.46118 A 31.279997,31.279992 0 0 1 98.4855,78.12919 h 0.004 A 31.280001,31.279996 0 0 1 92.45483,88.581544 L 87.9829,80.836059 a 22.999998,22.999995 0 0 0 1.56281,-2.706582 h -0.005 a 22.999995,22.999991 0 0 0 2.34612,-10.119953 22.999995,22.999991 0 0 0 -6.4e-4,-0.0026 22.999995,22.999991 0 0 0 -2.34592,-10.118247 l 0.005,1.02e-4 a 22.999998,22.999995 0 0 0 -1.56216,-2.706684 z m -53.1932,13.616503 6.40157,0.104017 c 0.43956,0.0096 0.84562,0.245225 1.06752,0.629555 l 3.28811,5.69538 c 0.11109,0.192133 0.16868,0.404928 0.17078,0.618144 l -10e-5,-9.6e-5 c 0.002,0.213185 -0.0517,0.42665 -0.15974,0.621192 l -3.11032,5.596397 c -0.22676,0.408474 -0.65343,0.654848 -1.12057,0.646958 L 39.40281,74.85723 c -0.2198,-0.0045 -0.43171,-0.06476 -0.61529,-0.174008 -0.18428,-0.108081 -0.34153,-0.262928 -0.45251,-0.455074 l -3.28812,-5.695381 c -0.22181,-0.384342 -0.22234,-0.854226 -0.0107,-1.239712 l 3.10489,-5.59259 c 0.0786,-0.15661 0.23578,-0.36984 0.50575,-0.508038 0.162,-0.0829 0.36499,-0.139399 0.61558,-0.139392 z m 0.0327,17.075772 h 8.94385 a 22.999998,22.999995 0 0 0 1.56271,2.706677 l -0.006,0.01112 A 22.999998,22.999995 0 0 0 67.32402,90.96658 l -4.46546,7.73465 4.47192,-7.74544 a 22.999998,22.999995 0 0 0 1.56262,0.053 22.999998,22.999995 0 0 0 1.56301,-0.0537 l 4.47173,7.74569 A 31.280001,31.279996 0 0 1 68.8932,99.2885 31.280001,31.279996 0 0 1 62.85847,98.70078 l -0.006,0.0109 a 31.279999,31.279994 0 0 1 -7.88836,-2.68186 l 2.20035,-3.8111 -3.37294,-1.9474 -2.20035,3.81117 a 31.279999,31.279994 0 0 1 -6.26703,-5.490742 l 0.007,-0.01086 A 31.280001,31.279996 0 0 1 39.2965,78.128668 Z m 46.05177,5.863389 c 0.46338,-0.0078 0.88673,0.236599 1.11164,0.641821 l 3.08045,5.548583 c 0.10492,0.19115 0.15854,0.40288 0.15575,0.6148 -10e-4,0.21192 -0.0565,0.42391 -0.16659,0.61455 l -3.26187,5.6495 c -0.22018,0.38123 -0.62353,0.61468 -1.05963,0.62407 l -6.34443,0.1065 c -0.17354,0.0102 -0.43464,-0.0192 -0.68727,-0.18246 -0.15156,-0.0981 -0.30074,-0.24438 -0.42503,-0.45962 l -3.08578,-5.55105 c -0.20972,-0.38244 -0.20871,-0.84813 0.0114,-1.22935 l 3.26188,-5.649567 c 0.10995,-0.190734 0.26419,-0.345709 0.44632,-0.453266 v 0 c 0.18214,-0.107487 0.39224,-0.167248 0.61292,-0.17096 z" />
</svg>
