<svg height="24" width="24" xmlns="http://www.w3.org/2000/svg"><path d="m12 1c-6.0751322 0-11 4.9248675-11 10.999999 0 6.075133 4.9248678 11.000001 11 11.000001 6.075132 0 11-4.924868 11-11 0-6.0751325-4.924868-11-11-11zm4.163195 3.1701389c.809876 0 1.451388.6797064 1.451388 1.4895833 0 .8098775-.641512 1.4513891-1.451388 1.4513891-.809878 0-1.489585-.6415116-1.489585-1.4513891 0-.8098769.679707-1.4895833 1.489585-1.4895833zm-3.934028 1.4895833c.515728 0 1.048006.036381 1.527778.1527778.09658 1.2615853 1.120051 2.2916666 2.40625 2.2916666.337448 0 .662344-.067169.95486-.1909724.830937.9895243 1.34563 2.2246588 1.45139 3.5902778h-2.940973c-.234971-1.6612105-1.673567-2.9409725-3.399305-2.9409725-.428559 0-.844023.1233375-1.222223.2673618l-1.451388-2.559028c.819612-.3853154 1.708509-.6111111 2.673611-.6111111zm-3.5520837 1.0694444 1.4895837 2.5590276c-.819652.6256484-1.336806 1.6018078-1.336806 2.7118048 0 1.078643.480052 2.045973 1.260417 2.673611l-1.451389 2.520835c-1.076055-.748432-1.9503414-1.808838-2.4062501-3.055556.6563666-.490629 1.1076389-1.256985 1.1076389-2.13889 0-.873584-.4236091-1.647437-1.0694445-2.138889.4630019-1.2773187 1.2963636-2.3819139 2.40625-3.1319434zm-4.0104166 3.5520824c.9448563 0 1.71875.773893 1.71875 1.718751 0 .944857-.7738937 1.71875-1.71875 1.71875-.9448565 0-1.71875-.773893-1.71875-1.71875 0-.944858.7738935-1.718751 1.71875-1.718751zm10.9618053 2.215278h2.940973c-.105752 1.365618-.620453 2.600753-1.45139 3.590278-.292516-.123791-.617412-.190972-.95486-.190972-1.286199 0-2.309658 1.030083-2.40625 2.291667-.479772.116394-1.01205.152778-1.527778.152778-.999222 0-1.946656-.199795-2.788195-.611111l1.527778-2.559027c.392864.157247.811612.26736 1.260417.26736 1.725738 0 3.164334-1.279762 3.399305-2.940973zm.534723 4.392362c.809876 0 1.451388.641512 1.451388 1.451389s-.641512 1.489583-1.451388 1.489583c-.809878 0-1.489585-.679706-1.489585-1.489583s.679707-1.451389 1.489585-1.451389z" fill="#bebebe"/></svg>